<mxfile host="app.diagrams.net" modified="2020-06-09T07:48:29.679Z" agent="5.0 (Windows)" etag="zMuJ8lNigztPeJmw-1VF" version="13.1.14" type="github">
  <diagram id="-CKtjyOTZqYxdyAydeiL" name="Page-1">
    <mxGraphModel dx="756" dy="496" grid="1" gridSize="10" guides="1" tooltips="1" connect="1" arrows="1" fold="1" page="1" pageScale="1" pageWidth="850" pageHeight="1100" math="0" shadow="0">
      <root>
        <mxCell id="0" />
        <mxCell id="1" parent="0" />
        <mxCell id="EIXX8NUIgJppqDE69sI5-13" value="" style="rounded=0;whiteSpace=wrap;html=1;" vertex="1" parent="1">
          <mxGeometry x="110" y="99" width="400" height="301" as="geometry" />
        </mxCell>
        <mxCell id="EIXX8NUIgJppqDE69sI5-3" value="" style="rounded=0;whiteSpace=wrap;html=1;" vertex="1" parent="1">
          <mxGeometry x="130" y="140" width="220" height="160" as="geometry" />
        </mxCell>
        <mxCell id="EIXX8NUIgJppqDE69sI5-1" value="" style="rounded=0;whiteSpace=wrap;html=1;" vertex="1" parent="1">
          <mxGeometry x="150" y="161" width="80" height="119" as="geometry" />
        </mxCell>
        <mxCell id="EIXX8NUIgJppqDE69sI5-2" value="" style="rounded=0;whiteSpace=wrap;html=1;" vertex="1" parent="1">
          <mxGeometry x="250" y="161" width="80" height="119" as="geometry" />
        </mxCell>
        <mxCell id="EIXX8NUIgJppqDE69sI5-4" value="Engine" style="text;html=1;strokeColor=none;fillColor=none;align=center;verticalAlign=middle;whiteSpace=wrap;rounded=0;fontStyle=1" vertex="1" parent="1">
          <mxGeometry x="130" y="120" width="220" height="20" as="geometry" />
        </mxCell>
        <mxCell id="EIXX8NUIgJppqDE69sI5-5" value="&lt;b&gt;Call Stack&lt;br&gt;&lt;/b&gt;" style="text;html=1;strokeColor=none;fillColor=none;align=center;verticalAlign=middle;whiteSpace=wrap;rounded=0;" vertex="1" parent="1">
          <mxGeometry x="150" y="141" width="80" height="20" as="geometry" />
        </mxCell>
        <mxCell id="EIXX8NUIgJppqDE69sI5-6" value="&lt;b&gt;Memory Heap&lt;br&gt;&lt;/b&gt;" style="text;html=1;strokeColor=none;fillColor=none;align=center;verticalAlign=middle;whiteSpace=wrap;rounded=0;" vertex="1" parent="1">
          <mxGeometry x="240" y="140" width="100" height="20" as="geometry" />
        </mxCell>
        <mxCell id="EIXX8NUIgJppqDE69sI5-7" value="" style="rounded=0;whiteSpace=wrap;html=1;" vertex="1" parent="1">
          <mxGeometry x="370" y="140" width="120" height="160" as="geometry" />
        </mxCell>
        <mxCell id="EIXX8NUIgJppqDE69sI5-8" value="Web APIer" style="text;html=1;strokeColor=none;fillColor=none;align=center;verticalAlign=middle;whiteSpace=wrap;rounded=0;fontStyle=1" vertex="1" parent="1">
          <mxGeometry x="370" y="120" width="120" height="20" as="geometry" />
        </mxCell>
        <mxCell id="EIXX8NUIgJppqDE69sI5-9" value="" style="rounded=0;whiteSpace=wrap;html=1;" vertex="1" parent="1">
          <mxGeometry x="130" y="320" width="360" height="60" as="geometry" />
        </mxCell>
        <mxCell id="EIXX8NUIgJppqDE69sI5-12" value="Callback Queue" style="text;html=1;strokeColor=none;fillColor=none;align=center;verticalAlign=middle;whiteSpace=wrap;rounded=0;fontStyle=1" vertex="1" parent="1">
          <mxGeometry x="130" y="300" width="360" height="20" as="geometry" />
        </mxCell>
        <mxCell id="EIXX8NUIgJppqDE69sI5-14" value="&lt;b&gt;JavaScript Runtime Environment&lt;br&gt;&lt;/b&gt;" style="text;html=1;strokeColor=none;fillColor=none;align=center;verticalAlign=middle;whiteSpace=wrap;rounded=0;" vertex="1" parent="1">
          <mxGeometry x="110" y="79" width="400" height="20" as="geometry" />
        </mxCell>
      </root>
    </mxGraphModel>
  </diagram>
</mxfile>
